<svg width="20" height="19" viewBox="0 0 20 19" fill="none" xmlns="http://www.w3.org/2000/svg">
<path d="M18.3275 13.9164L18.0682 16.1337C17.9623 17.0393 17.2033 17.7365 16.2528 17.6153C14.2363 17.358 10.5929 16.3511 6.69118 12.6445C2.78952 8.93792 1.72912 5.47629 1.45796 3.56027C1.33014 2.6571 2.06418 1.93583 3.01758 1.83519L5.35122 1.58886C6.16393 1.50308 6.9526 1.88419 7.35822 2.55871L8.27024 4.07537C8.72889 4.83809 8.5935 5.79806 7.93969 6.41918L7.76125 6.5887C7.27644 7.04927 7.07157 7.71409 7.38447 8.29364C7.68378 8.84801 8.19392 9.59376 9.04763 10.4048C9.90133 11.2158 10.6863 11.7004 11.2699 11.9848C11.8799 12.282 12.5797 12.0874 13.0645 11.6268L13.243 11.4573C13.8968 10.8362 14.9073 10.7076 15.7102 11.1433L17.3066 12.0097C18.0167 12.395 18.4178 13.1443 18.3275 13.9164Z" stroke="white" stroke-width="1.5" stroke-linecap="round" stroke-linejoin="round"/>
</svg>
