<svg width="95" height="32" viewBox="0 0 95 32" fill="none" xmlns="http://www.w3.org/2000/svg">
<path d="M40.4273 16.4105C40.4273 20.8522 36.9381 24.1252 32.6561 24.1252C28.3742 24.1252 24.885 20.8522 24.885 16.4105C24.885 11.9374 28.3742 8.69568 32.6561 8.69568C36.9381 8.69568 40.4273 11.9374 40.4273 16.4105ZM37.0255 16.4105C37.0255 13.6348 35.0032 11.7357 32.6561 11.7357C30.3091 11.7357 28.2868 13.6348 28.2868 16.4105C28.2868 19.1583 30.3091 21.0852 32.6561 21.0852C35.0032 21.0852 37.0255 19.1548 37.0255 16.4105Z" fill="#EA4335"/>
<path d="M57.1919 16.4105C57.1919 20.8522 53.7028 24.1252 49.4208 24.1252C45.1388 24.1252 41.6497 20.8522 41.6497 16.4105C41.6497 11.9409 45.1388 8.69568 49.4208 8.69568C53.7028 8.69568 57.1919 11.9374 57.1919 16.4105ZM53.7901 16.4105C53.7901 13.6348 51.7679 11.7357 49.4208 11.7357C47.0737 11.7357 45.0515 13.6348 45.0515 16.4105C45.0515 19.1583 47.0737 21.0852 49.4208 21.0852C51.7679 21.0852 53.7901 19.1548 53.7901 16.4105Z" fill="#FBBC05"/>
<path d="M73.2582 9.16177V23.0122C73.2582 28.7096 69.8843 31.0365 65.8957 31.0365C62.1411 31.0365 59.8814 28.5357 59.0292 26.4905L61.9909 25.2626C62.5183 26.5183 63.8106 28 65.8922 28C68.4453 28 70.0275 26.4313 70.0275 23.4783V22.3687H69.9088C69.1474 23.3044 67.6805 24.1218 65.8294 24.1218C61.956 24.1218 58.4075 20.7618 58.4075 16.4383C58.4075 12.0835 61.956 8.69568 65.8294 8.69568C67.677 8.69568 69.1439 9.51307 69.9088 10.4209H70.0275V9.16524H73.2582V9.16177ZM70.2685 16.4383C70.2685 13.7218 68.4488 11.7357 66.1332 11.7357C63.7862 11.7357 61.8198 13.7218 61.8198 16.4383C61.8198 19.127 63.7862 21.0852 66.1332 21.0852C68.4488 21.0852 70.2685 19.127 70.2685 16.4383Z" fill="#4285F4"/>
<path d="M78.5846 1.04346V23.6522H75.2666V1.04346H78.5846Z" fill="#34A853"/>
<path d="M91.5145 18.9495L94.1549 20.7026C93.3027 21.9582 91.249 24.1217 87.7005 24.1217C83.2998 24.1217 80.0132 20.7339 80.0132 16.4069C80.0132 11.8191 83.3277 8.69214 87.3198 8.69214C91.3398 8.69214 93.3062 11.8782 93.9488 13.6L94.3016 14.4765L83.9459 18.7478C84.7387 20.2956 85.9716 21.0852 87.7005 21.0852C89.4329 21.0852 90.6343 20.2365 91.5145 18.9495ZM83.3871 16.1739L90.3095 13.3113C89.9288 12.3478 88.7832 11.6765 87.4351 11.6765C85.7062 11.6765 83.2998 13.1965 83.3871 16.1739Z" fill="#EA4335"/>
<path d="M12.3255 14.4035V11.1304H23.4007C23.509 11.7008 23.5649 12.3756 23.5649 13.1061C23.5649 15.5617 22.8908 18.5982 20.7184 20.7617C18.6053 22.953 15.9055 24.1217 12.329 24.1217C5.7 24.1217 0.125732 18.7443 0.125732 12.1426C0.125732 5.54084 5.7 0.163452 12.329 0.163452C15.9963 0.163452 18.6088 1.5965 20.5717 3.46432L18.2526 5.77389C16.845 4.45911 14.938 3.4365 12.3255 3.4365C7.48474 3.4365 3.69871 7.32171 3.69871 12.1426C3.69871 16.9635 7.48474 20.8487 12.3255 20.8487C15.4654 20.8487 17.2537 19.593 18.3993 18.4521C19.3283 17.5269 19.9395 16.2052 20.1805 14.4L12.3255 14.4035Z" fill="#4285F4"/>
</svg>
