<svg width="173" height="42" viewBox="0 0 173 42" fill="none" xmlns="http://www.w3.org/2000/svg">
<path d="M31.289 32.27C26.663 32.27 24.35 30.857 24.35 28.031V23.333C24.35 21.695 24.872 20.507 25.916 19.769C26.978 19.031 28.607 18.662 30.803 18.662C32.873 18.662 34.385 19.022 35.339 19.742C36.311 20.444 36.797 21.641 36.797 23.333V26.519H28.319V27.707C28.319 28.463 28.589 29.003 29.129 29.327C29.669 29.651 30.641 29.813 32.045 29.813C33.341 29.813 34.799 29.624 36.419 29.246V31.757C34.817 32.099 33.107 32.27 31.289 32.27ZM33.044 24.278V22.388C33.044 21.956 32.864 21.632 32.504 21.416C32.162 21.2 31.577 21.092 30.749 21.092C29.795 21.092 29.156 21.2 28.832 21.416C28.49 21.65 28.319 21.974 28.319 22.388V24.278H33.044ZM39.81 18.932H43.698V20.525C44.004 19.283 45.399 18.662 47.883 18.662C49.557 18.662 50.727 18.968 51.393 19.58C52.077 20.174 52.419 21.119 52.419 22.415V32H48.477V22.928C48.477 22.424 48.423 22.046 48.315 21.794C48.225 21.542 48.027 21.362 47.721 21.254C47.433 21.146 46.983 21.092 46.371 21.092C45.597 21.092 45.03 21.146 44.67 21.254C44.31 21.344 44.067 21.515 43.941 21.767C43.815 22.019 43.752 22.406 43.752 22.928V32H39.81V18.932ZM62.2396 32.27C61.5556 32.27 61.0156 32.252 60.6196 32.216C60.2236 32.198 59.7376 32.153 59.1616 32.081C58.5856 32.009 58.1086 31.883 57.7306 31.703C57.3706 31.523 56.9926 31.253 56.5966 30.893C55.8586 30.281 55.4896 29.237 55.4896 27.761V23.414C55.4896 22.226 55.7596 21.236 56.2996 20.444C56.4976 20.156 56.7856 19.895 57.1636 19.661C57.5596 19.409 57.9556 19.211 58.3516 19.067C58.6756 18.959 59.1076 18.869 59.6476 18.797C60.1876 18.725 60.6646 18.68 61.0786 18.662H62.5096C63.5176 18.662 64.8406 18.824 66.4786 19.148V21.74C64.6246 21.308 63.2026 21.092 62.2126 21.092C60.3946 21.092 59.4856 21.704 59.4856 22.928V27.734C59.4856 29.12 60.4846 29.813 62.4826 29.813C63.4546 29.813 64.8496 29.615 66.6676 29.219V31.811C65.0296 32.117 63.5536 32.27 62.2396 32.27ZM68.893 13.1H72.835V20.525C73.087 19.283 74.464 18.662 76.966 18.662C78.64 18.662 79.81 18.968 80.476 19.58C81.16 20.174 81.502 21.119 81.502 22.415V32H77.56V22.874C77.56 22.37 77.506 22.001 77.398 21.767C77.308 21.515 77.119 21.344 76.831 21.254C76.543 21.146 76.084 21.092 75.454 21.092C74.68 21.092 74.113 21.137 73.753 21.227C73.393 21.317 73.15 21.488 73.024 21.74C72.898 21.974 72.835 22.352 72.835 22.874V32H68.893V13.1ZM97.0053 32.27C95.3313 32.27 93.2613 32.108 90.7953 31.784V28.571C93.8553 29.039 95.9433 29.273 97.0593 29.273C99.3993 29.273 100.569 28.67 100.569 27.464V26.33C100.569 25.754 100.398 25.313 100.056 25.007C99.7323 24.701 99.1383 24.548 98.2743 24.548H96.2223C92.3703 24.548 90.4443 23.018 90.4443 19.958V18.662C90.4443 17.132 91.0833 16.007 92.3613 15.287C93.6393 14.567 95.6643 14.207 98.4363 14.207C99.8763 14.207 101.703 14.324 103.917 14.558V17.69C101.199 17.366 99.3273 17.204 98.3013 17.204C96.8793 17.204 95.9253 17.321 95.4393 17.555C94.9173 17.807 94.6563 18.203 94.6563 18.743V19.985C94.6563 20.903 95.4303 21.362 96.9783 21.362H99.0843C101.082 21.362 102.531 21.731 103.431 22.469C104.331 23.207 104.781 24.332 104.781 25.844V27.005C104.781 29.093 104.034 30.506 102.54 31.244C101.82 31.622 101.019 31.883 100.137 32.027C99.2733 32.189 98.2293 32.27 97.0053 32.27ZM114.081 32.27C113.415 32.27 112.857 32.243 112.407 32.189C111.957 32.135 111.507 32.027 111.057 31.865C110.553 31.703 110.139 31.478 109.815 31.19C109.509 30.902 109.257 30.506 109.059 30.002C108.843 29.48 108.735 28.877 108.735 28.193V21.362H106.089V18.932H108.735V15.152H112.677V18.932H116.268V21.362H112.677V27.518C112.677 28.148 112.731 28.625 112.839 28.949C112.947 29.255 113.154 29.48 113.46 29.624C113.766 29.75 114.234 29.813 114.864 29.813C115.116 29.813 115.584 29.768 116.268 29.678V32.135C115.422 32.225 114.693 32.27 114.081 32.27ZM123.078 32.27C121.404 32.27 120.225 31.973 119.541 31.379C118.875 30.767 118.542 29.813 118.542 28.517V18.932H122.484V27.977C122.484 28.481 122.529 28.859 122.619 29.111C122.727 29.363 122.925 29.543 123.213 29.651C123.519 29.759 123.978 29.813 124.59 29.813C125.364 29.813 125.931 29.768 126.291 29.678C126.651 29.57 126.894 29.39 127.02 29.138C127.146 28.886 127.209 28.499 127.209 27.977V18.932H131.151V32H127.263V30.407C126.975 31.649 125.58 32.27 123.078 32.27ZM139.622 32.27C138.074 32.27 136.931 32.162 136.193 31.946C135.455 31.712 134.942 31.28 134.654 30.65C134.366 30.02 134.222 29.039 134.222 27.707V22.604C134.222 21.164 134.627 20.147 135.437 19.553C136.265 18.959 137.597 18.662 139.433 18.662C140.297 18.662 140.972 18.716 141.458 18.824C141.962 18.914 142.367 19.085 142.673 19.337C142.979 19.571 143.294 19.922 143.618 20.39V13.1H147.56V32H143.753V30.515C143.429 31.037 143.132 31.406 142.862 31.622C142.61 31.82 142.25 31.973 141.782 32.081C141.296 32.207 140.576 32.27 139.622 32.27ZM140.621 29.813C141.503 29.813 142.151 29.768 142.565 29.678C142.979 29.588 143.258 29.426 143.402 29.192C143.546 28.94 143.618 28.571 143.618 28.085V22.82C143.618 22.37 143.537 22.028 143.375 21.794C143.231 21.542 142.961 21.362 142.565 21.254C142.187 21.146 141.611 21.092 140.837 21.092C140.009 21.092 139.415 21.146 139.055 21.254C138.695 21.344 138.452 21.515 138.326 21.767C138.218 22.001 138.164 22.397 138.164 22.955V27.95C138.164 28.454 138.218 28.841 138.326 29.111C138.452 29.363 138.686 29.543 139.028 29.651C139.37 29.759 139.901 29.813 140.621 29.813ZM151.135 14.207H155.077V17.393H151.135V14.207ZM151.135 18.932H155.077V32H151.135V18.932ZM164.911 32.27C164.101 32.27 163.435 32.243 162.913 32.189C162.391 32.135 161.833 32.027 161.239 31.865C160.591 31.685 160.069 31.433 159.673 31.109C159.277 30.767 158.944 30.29 158.674 29.678C158.404 29.084 158.269 28.364 158.269 27.518V23.657C158.269 22.793 158.404 22.037 158.674 21.389C158.944 20.741 159.295 20.237 159.727 19.877C160.105 19.571 160.6 19.319 161.212 19.121C161.842 18.905 162.454 18.77 163.048 18.716C163.732 18.68 164.353 18.662 164.911 18.662C165.739 18.662 166.396 18.689 166.882 18.743C167.386 18.779 167.935 18.887 168.529 19.067C169.177 19.265 169.699 19.535 170.095 19.877C170.509 20.219 170.86 20.705 171.148 21.335C171.418 21.983 171.553 22.757 171.553 23.657V27.518C171.553 28.328 171.418 29.039 171.148 29.651C170.896 30.263 170.563 30.74 170.149 31.082C169.789 31.388 169.294 31.64 168.664 31.838C168.052 32.018 167.449 32.135 166.855 32.189C166.315 32.243 165.667 32.27 164.911 32.27ZM164.911 29.813C165.649 29.813 166.207 29.759 166.585 29.651C166.963 29.525 167.224 29.336 167.368 29.084C167.53 28.832 167.611 28.463 167.611 27.977V23.036C167.611 22.316 167.422 21.812 167.044 21.524C166.666 21.236 165.955 21.092 164.911 21.092C163.867 21.092 163.156 21.236 162.778 21.524C162.4 21.812 162.211 22.316 162.211 23.036V27.977C162.211 28.463 162.283 28.832 162.427 29.084C162.589 29.336 162.859 29.525 163.237 29.651C163.615 29.759 164.173 29.813 164.911 29.813Z" fill="white"/>
<path d="M19.67 20.245C21.0467 21.8783 21.735 23.71 21.735 25.74C21.6883 28.0733 20.8833 30.0333 19.32 31.62C17.78 33.1833 15.9017 33.965 13.685 33.965H4.48C2.84667 33.965 1.89 33.5217 1.61 32.635C1.47 32.2383 1.4 31.6317 1.4 30.815V11.39C1.4 10.83 1.41167 10.4217 1.435 10.165C1.48167 9.90833 1.59833 9.605 1.785 9.255C2.11167 8.625 3.02167 8.31 4.515 8.31H13.335C15.4817 8.31 17.2783 9.05667 18.725 10.55C20.2417 12.0667 21 13.8867 21 16.01C21 17.55 20.5567 18.9617 19.67 20.245ZM15.54 25.39C15.54 24.83 15.47 24.3867 15.33 24.06C15.2133 23.7333 15.0033 23.5 14.7 23.36C14.2333 23.1733 13.58 23.08 12.74 23.08C11.9 23.08 11.27 22.9167 10.85 22.59C10.43 22.2633 10.22 21.5983 10.22 20.595C10.22 19.5683 10.43 18.8917 10.85 18.565C11.2933 18.2383 12.0167 18.075 13.02 18.075C13.9533 18.075 14.5133 17.83 14.7 17.34C14.77 17.0833 14.805 16.6633 14.805 16.08C14.805 15.4967 14.6067 15.0883 14.21 14.855C13.8367 14.6217 13.265 14.505 12.495 14.505H7.595V27.77H13.335C14.805 27.77 15.54 26.9767 15.54 25.39Z" fill="#EA333B"/>
</svg>
