<svg width="172" height="34" viewBox="0 0 172 34" fill="none" xmlns="http://www.w3.org/2000/svg">
<path d="M23.833 26.19C20.5777 26.19 18.95 25.1957 18.95 23.207V19.901C18.95 18.7483 19.3173 17.9123 20.052 17.393C20.7993 16.8737 21.9457 16.614 23.491 16.614C24.9477 16.614 26.0117 16.8673 26.683 17.374C27.367 17.868 27.709 18.7103 27.709 19.901V22.143H21.743V22.979C21.743 23.511 21.933 23.891 22.313 24.119C22.693 24.347 23.377 24.461 24.365 24.461C25.277 24.461 26.303 24.328 27.443 24.062V25.829C26.3157 26.0697 25.1123 26.19 23.833 26.19ZM25.068 20.566V19.236C25.068 18.932 24.9413 18.704 24.688 18.552C24.4473 18.4 24.0357 18.324 23.453 18.324C22.7817 18.324 22.332 18.4 22.104 18.552C21.8633 18.7167 21.743 18.9447 21.743 19.236V20.566H25.068ZM29.8293 16.804H32.5653V17.925C32.7806 17.051 33.7623 16.614 35.5103 16.614C36.6883 16.614 37.5116 16.8293 37.9803 17.26C38.4616 17.678 38.7023 18.343 38.7023 19.255V26H35.9283V19.616C35.9283 19.2613 35.8903 18.9953 35.8143 18.818C35.7509 18.6407 35.6116 18.514 35.3963 18.438C35.1936 18.362 34.8769 18.324 34.4463 18.324C33.9016 18.324 33.5026 18.362 33.2493 18.438C32.9959 18.5013 32.8249 18.6217 32.7363 18.799C32.6476 18.9763 32.6033 19.2487 32.6033 19.616V26H29.8293V16.804ZM45.6131 26.19C45.1318 26.19 44.7518 26.1773 44.4731 26.152C44.1944 26.1393 43.8524 26.1077 43.4471 26.057C43.0418 26.0063 42.7061 25.9177 42.4401 25.791C42.1868 25.6643 41.9208 25.4743 41.6421 25.221C41.1228 24.7903 40.8631 24.0557 40.8631 23.017V19.958C40.8631 19.122 41.0531 18.4253 41.4331 17.868C41.5724 17.6653 41.7751 17.4817 42.0411 17.317C42.3198 17.1397 42.5984 17.0003 42.8771 16.899C43.1051 16.823 43.4091 16.7597 43.7891 16.709C44.1691 16.6583 44.5048 16.6267 44.7961 16.614H45.8031C46.5124 16.614 47.4434 16.728 48.5961 16.956V18.78C47.2914 18.476 46.2908 18.324 45.5941 18.324C44.3148 18.324 43.6751 18.7547 43.6751 19.616V22.998C43.6751 23.9733 44.3781 24.461 45.7841 24.461C46.4681 24.461 47.4498 24.3217 48.7291 24.043V25.867C47.5764 26.0823 46.5378 26.19 45.6131 26.19ZM50.2951 12.7H53.0691V17.925C53.2464 17.051 54.2154 16.614 55.9761 16.614C57.1541 16.614 57.9774 16.8293 58.4461 17.26C58.9274 17.678 59.1681 18.343 59.1681 19.255V26H56.3941V19.578C56.3941 19.2233 56.3561 18.9637 56.2801 18.799C56.2168 18.6217 56.0838 18.5013 55.8811 18.438C55.6784 18.362 55.3554 18.324 54.9121 18.324C54.3674 18.324 53.9684 18.3557 53.7151 18.419C53.4618 18.4823 53.2908 18.6027 53.2021 18.78C53.1134 18.9447 53.0691 19.2107 53.0691 19.578V26H50.2951V12.7ZM71.5408 26.19C70.9835 26.19 70.4831 26.1647 70.0398 26.114C69.6091 26.0633 69.1341 25.9683 68.6148 25.829C68.0321 25.677 67.5508 25.4807 67.1708 25.24C66.7908 24.9867 66.4741 24.6383 66.2208 24.195C65.9548 23.7517 65.8218 23.226 65.8218 22.618V17.203C65.8218 14.7203 67.7281 13.479 71.5408 13.479C72.5161 13.479 73.8208 13.6183 75.4548 13.897V16.12C73.9855 15.7653 72.6935 15.588 71.5788 15.588C71.1101 15.588 70.7428 15.6007 70.4768 15.626C70.2235 15.6513 69.9575 15.7147 69.6788 15.816C69.0835 16.0187 68.7858 16.4683 68.7858 17.165V22.409C68.7858 23.5237 69.8055 24.081 71.8448 24.081C72.7188 24.081 73.9475 23.8973 75.5308 23.53V25.772C74.1755 26.0507 72.8455 26.19 71.5408 26.19ZM81.7187 26.19C81.1487 26.19 80.6801 26.171 80.3127 26.133C79.9454 26.095 79.5527 26.019 79.1347 25.905C78.6787 25.7783 78.3114 25.601 78.0327 25.373C77.7541 25.1323 77.5197 24.7967 77.3297 24.366C77.1397 23.948 77.0447 23.4413 77.0447 22.846V20.129C77.0447 19.521 77.1397 18.989 77.3297 18.533C77.5197 18.077 77.7667 17.7223 78.0707 17.469C78.3367 17.2537 78.6851 17.0763 79.1157 16.937C79.5591 16.785 79.9897 16.69 80.4077 16.652C80.8891 16.6267 81.3261 16.614 81.7187 16.614C82.3014 16.614 82.7637 16.633 83.1057 16.671C83.4604 16.6963 83.8467 16.7723 84.2647 16.899C84.7207 17.0383 85.0881 17.2283 85.3667 17.469C85.6581 17.7097 85.9051 18.0517 86.1077 18.495C86.2977 18.951 86.3927 19.4957 86.3927 20.129V22.846C86.3927 23.416 86.2977 23.9163 86.1077 24.347C85.9304 24.7777 85.6961 25.1133 85.4047 25.354C85.1514 25.5693 84.8031 25.7467 84.3597 25.886C83.9291 26.0127 83.5047 26.095 83.0867 26.133C82.7067 26.171 82.2507 26.19 81.7187 26.19ZM81.7187 24.461C82.2381 24.461 82.6307 24.423 82.8967 24.347C83.1627 24.2583 83.3464 24.1253 83.4477 23.948C83.5617 23.7707 83.6187 23.511 83.6187 23.169V19.692C83.6187 19.1853 83.4857 18.8307 83.2197 18.628C82.9537 18.4253 82.4534 18.324 81.7187 18.324C80.9841 18.324 80.4837 18.4253 80.2177 18.628C79.9517 18.8307 79.8187 19.1853 79.8187 19.692V23.169C79.8187 23.511 79.8694 23.7707 79.9707 23.948C80.0847 24.1253 80.2747 24.2583 80.5407 24.347C80.8067 24.423 81.1994 24.461 81.7187 24.461ZM88.5549 16.804H91.1959V18.419C91.1959 18.1277 91.3162 17.8427 91.5569 17.564C91.7975 17.2853 92.1015 17.0573 92.4689 16.88C92.8489 16.7027 93.2225 16.614 93.5899 16.614H94.5779V18.913H93.6279C92.8425 18.913 92.2599 19.0333 91.8799 19.274C91.5125 19.5147 91.3289 19.9137 91.3289 20.471V26H88.5549V16.804ZM96.1066 16.804H98.7286V17.716C98.8933 17.3107 99.2163 17.0257 99.6976 16.861C100.179 16.6963 100.895 16.614 101.845 16.614C102.643 16.614 103.282 16.6773 103.764 16.804C104.258 16.9307 104.631 17.1333 104.885 17.412C105.125 17.6907 105.29 18.001 105.379 18.343C105.467 18.6723 105.512 19.1283 105.512 19.711V22.732C105.512 23.644 105.379 24.347 105.113 24.841C104.847 25.335 104.435 25.6833 103.878 25.886C103.333 26.0887 102.586 26.19 101.636 26.19C100.724 26.19 100.065 26.114 99.6596 25.962C99.2543 25.81 98.9946 25.5123 98.8806 25.069V29.952H96.1066V16.804ZM100.781 24.461C101.325 24.461 101.737 24.423 102.016 24.347C102.294 24.271 102.484 24.138 102.586 23.948C102.687 23.758 102.738 23.473 102.738 23.093V19.692C102.738 19.274 102.693 18.9763 102.605 18.799C102.516 18.609 102.339 18.4823 102.073 18.419C101.807 18.3557 101.37 18.324 100.762 18.324C100.242 18.324 99.8433 18.3683 99.5646 18.457C99.2986 18.5457 99.115 18.685 99.0136 18.875C98.925 19.065 98.8806 19.3373 98.8806 19.692V23.093C98.8806 23.473 98.925 23.758 99.0136 23.948C99.115 24.138 99.2986 24.271 99.5646 24.347C99.8306 24.423 100.236 24.461 100.781 24.461ZM112.093 26.19C111.523 26.19 111.054 26.171 110.687 26.133C110.319 26.095 109.927 26.019 109.509 25.905C109.053 25.7783 108.685 25.601 108.407 25.373C108.128 25.1323 107.894 24.7967 107.704 24.366C107.514 23.948 107.419 23.4413 107.419 22.846V20.129C107.419 19.521 107.514 18.989 107.704 18.533C107.894 18.077 108.141 17.7223 108.445 17.469C108.711 17.2537 109.059 17.0763 109.49 16.937C109.933 16.785 110.364 16.69 110.782 16.652C111.263 16.6267 111.7 16.614 112.093 16.614C112.675 16.614 113.138 16.633 113.48 16.671C113.834 16.6963 114.221 16.7723 114.639 16.899C115.095 17.0383 115.462 17.2283 115.741 17.469C116.032 17.7097 116.279 18.0517 116.482 18.495C116.672 18.951 116.767 19.4957 116.767 20.129V22.846C116.767 23.416 116.672 23.9163 116.482 24.347C116.304 24.7777 116.07 25.1133 115.779 25.354C115.525 25.5693 115.177 25.7467 114.734 25.886C114.303 26.0127 113.879 26.095 113.461 26.133C113.081 26.171 112.625 26.19 112.093 26.19ZM112.093 24.461C112.612 24.461 113.005 24.423 113.271 24.347C113.537 24.2583 113.72 24.1253 113.822 23.948C113.936 23.7707 113.993 23.511 113.993 23.169V19.692C113.993 19.1853 113.86 18.8307 113.594 18.628C113.328 18.4253 112.827 18.324 112.093 18.324C111.358 18.324 110.858 18.4253 110.592 18.628C110.326 18.8307 110.193 19.1853 110.193 19.692V23.169C110.193 23.511 110.243 23.7707 110.345 23.948C110.459 24.1253 110.649 24.2583 110.915 24.347C111.181 24.423 111.573 24.461 112.093 24.461ZM118.929 16.804H121.57V18.419C121.57 18.1277 121.69 17.8427 121.931 17.564C122.172 17.2853 122.476 17.0573 122.843 16.88C123.223 16.7027 123.597 16.614 123.964 16.614H124.952V18.913H124.002C123.217 18.913 122.634 19.0333 122.254 19.274C121.887 19.5147 121.703 19.9137 121.703 20.471V26H118.929V16.804ZM129.084 26.19C128.222 26.19 127.576 26.114 127.146 25.962C126.728 25.7973 126.43 25.5123 126.253 25.107C126.088 24.689 126.006 24.0683 126.006 23.245C126.006 22.5103 126.094 21.934 126.272 21.516C126.462 21.098 126.759 20.8003 127.165 20.623C127.583 20.433 128.153 20.338 128.875 20.338H131.991V19.711C131.991 19.3183 131.934 19.027 131.82 18.837C131.718 18.647 131.522 18.514 131.231 18.438C130.952 18.362 130.528 18.324 129.958 18.324C129.172 18.324 128.096 18.4 126.728 18.552V16.804C127.728 16.6773 128.9 16.614 130.243 16.614C131.421 16.614 132.326 16.7027 132.96 16.88C133.606 17.0573 134.068 17.3613 134.347 17.792C134.625 18.2227 134.765 18.8497 134.765 19.673V26H132.048V25.164C131.832 25.5313 131.541 25.791 131.174 25.943C130.806 26.1077 130.11 26.19 129.084 26.19ZM130.167 24.461C130.724 24.461 131.123 24.442 131.364 24.404C131.541 24.3787 131.661 24.3407 131.725 24.29C131.801 24.2393 131.864 24.157 131.915 24.043C131.965 23.9543 131.991 23.8213 131.991 23.644V21.858H130.091C129.66 21.858 129.356 21.8897 129.179 21.953C129.001 22.0037 128.881 22.1177 128.818 22.295C128.754 22.4597 128.723 22.7573 128.723 23.188C128.723 23.606 128.754 23.8973 128.818 24.062C128.881 24.2267 129.001 24.3343 129.179 24.385C129.369 24.4357 129.698 24.461 130.167 24.461ZM141.803 26.19C141.335 26.19 140.942 26.171 140.625 26.133C140.309 26.095 139.992 26.019 139.675 25.905C139.321 25.791 139.029 25.6327 138.801 25.43C138.586 25.2273 138.409 24.9487 138.269 24.594C138.117 24.2267 138.041 23.8023 138.041 23.321V18.514H136.179V16.804H138.041V14.144H140.815V16.804H143.342V18.514H140.815V22.846C140.815 23.2893 140.853 23.625 140.929 23.853C141.005 24.0683 141.151 24.2267 141.366 24.328C141.582 24.4167 141.911 24.461 142.354 24.461C142.532 24.461 142.861 24.4293 143.342 24.366V26.095C142.747 26.1583 142.234 26.19 141.803 26.19ZM145.019 13.479H147.793V15.721H145.019V13.479ZM145.019 16.804H147.793V26H145.019V16.804ZM154.713 26.19C154.143 26.19 153.674 26.171 153.307 26.133C152.94 26.095 152.547 26.019 152.129 25.905C151.673 25.7783 151.306 25.601 151.027 25.373C150.748 25.1323 150.514 24.7967 150.324 24.366C150.134 23.948 150.039 23.4413 150.039 22.846V20.129C150.039 19.521 150.134 18.989 150.324 18.533C150.514 18.077 150.761 17.7223 151.065 17.469C151.331 17.2537 151.679 17.0763 152.11 16.937C152.553 16.785 152.984 16.69 153.402 16.652C153.883 16.6267 154.32 16.614 154.713 16.614C155.296 16.614 155.758 16.633 156.1 16.671C156.455 16.6963 156.841 16.7723 157.259 16.899C157.715 17.0383 158.082 17.2283 158.361 17.469C158.652 17.7097 158.899 18.0517 159.102 18.495C159.292 18.951 159.387 19.4957 159.387 20.129V22.846C159.387 23.416 159.292 23.9163 159.102 24.347C158.925 24.7777 158.69 25.1133 158.399 25.354C158.146 25.5693 157.797 25.7467 157.354 25.886C156.923 26.0127 156.499 26.095 156.081 26.133C155.701 26.171 155.245 26.19 154.713 26.19ZM154.713 24.461C155.232 24.461 155.625 24.423 155.891 24.347C156.157 24.2583 156.341 24.1253 156.442 23.948C156.556 23.7707 156.613 23.511 156.613 23.169V19.692C156.613 19.1853 156.48 18.8307 156.214 18.628C155.948 18.4253 155.448 18.324 154.713 18.324C153.978 18.324 153.478 18.4253 153.212 18.628C152.946 18.8307 152.813 19.1853 152.813 19.692V23.169C152.813 23.511 152.864 23.7707 152.965 23.948C153.079 24.1253 153.269 24.2583 153.535 24.347C153.801 24.423 154.194 24.461 154.713 24.461ZM161.549 16.804H164.285V17.925C164.5 17.051 165.482 16.614 167.23 16.614C168.408 16.614 169.231 16.8293 169.7 17.26C170.181 17.678 170.422 18.343 170.422 19.255V26H167.648V19.616C167.648 19.2613 167.61 18.9953 167.534 18.818C167.471 18.6407 167.331 18.514 167.116 18.438C166.913 18.362 166.597 18.324 166.166 18.324C165.621 18.324 165.222 18.362 164.969 18.438C164.716 18.5013 164.545 18.6217 164.456 18.799C164.367 18.9763 164.323 19.2487 164.323 19.616V26H161.549V16.804Z" fill="white"/>
<path d="M15.736 15.996C16.8373 17.3027 17.388 18.768 17.388 20.392C17.3507 22.2587 16.7067 23.8267 15.456 25.096C14.224 26.3467 12.7213 26.972 10.948 26.972H3.584C2.27733 26.972 1.512 26.6173 1.288 25.908C1.176 25.5907 1.12 25.1053 1.12 24.452V8.912C1.12 8.464 1.12933 8.13733 1.148 7.932C1.18533 7.72667 1.27867 7.484 1.428 7.204C1.68933 6.7 2.41733 6.448 3.612 6.448H10.668C12.3853 6.448 13.8227 7.04533 14.98 8.24C16.1933 9.45333 16.8 10.9093 16.8 12.608C16.8 13.84 16.4453 14.9693 15.736 15.996ZM12.432 20.112C12.432 19.664 12.376 19.3093 12.264 19.048C12.1707 18.7867 12.0027 18.6 11.76 18.488C11.3867 18.3387 10.864 18.264 10.192 18.264C9.52 18.264 9.016 18.1333 8.68 17.872C8.344 17.6107 8.176 17.0787 8.176 16.276C8.176 15.4547 8.344 14.9133 8.68 14.652C9.03467 14.3907 9.61333 14.26 10.416 14.26C11.1627 14.26 11.6107 14.064 11.76 13.672C11.816 13.4667 11.844 13.1307 11.844 12.664C11.844 12.1973 11.6853 11.8707 11.368 11.684C11.0693 11.4973 10.612 11.404 9.996 11.404H6.076V22.016H10.668C11.844 22.016 12.432 21.3813 12.432 20.112Z" fill="#EA333B"/>
</svg>
