<svg width="124" height="34" viewBox="0 0 124 34" fill="none" xmlns="http://www.w3.org/2000/svg">
<path d="M23.833 26.19C20.5777 26.19 18.95 25.1957 18.95 23.207V19.901C18.95 18.7483 19.3173 17.9123 20.052 17.393C20.7993 16.8737 21.9457 16.614 23.491 16.614C24.9477 16.614 26.0117 16.8673 26.683 17.374C27.367 17.868 27.709 18.7103 27.709 19.901V22.143H21.743V22.979C21.743 23.511 21.933 23.891 22.313 24.119C22.693 24.347 23.377 24.461 24.365 24.461C25.277 24.461 26.303 24.328 27.443 24.062V25.829C26.3157 26.0697 25.1123 26.19 23.833 26.19ZM25.068 20.566V19.236C25.068 18.932 24.9413 18.704 24.688 18.552C24.4473 18.4 24.0357 18.324 23.453 18.324C22.7817 18.324 22.332 18.4 22.104 18.552C21.8633 18.7167 21.743 18.9447 21.743 19.236V20.566H25.068ZM29.8293 16.804H32.5653V17.925C32.7806 17.051 33.7623 16.614 35.5103 16.614C36.6883 16.614 37.5116 16.8293 37.9803 17.26C38.4616 17.678 38.7023 18.343 38.7023 19.255V26H35.9283V19.616C35.9283 19.2613 35.8903 18.9953 35.8143 18.818C35.7509 18.6407 35.6116 18.514 35.3963 18.438C35.1936 18.362 34.8769 18.324 34.4463 18.324C33.9016 18.324 33.5026 18.362 33.2493 18.438C32.9959 18.5013 32.8249 18.6217 32.7363 18.799C32.6476 18.9763 32.6033 19.2487 32.6033 19.616V26H29.8293V16.804ZM45.6131 26.19C45.1318 26.19 44.7518 26.1773 44.4731 26.152C44.1944 26.1393 43.8524 26.1077 43.4471 26.057C43.0418 26.0063 42.7061 25.9177 42.4401 25.791C42.1868 25.6643 41.9208 25.4743 41.6421 25.221C41.1228 24.7903 40.8631 24.0557 40.8631 23.017V19.958C40.8631 19.122 41.0531 18.4253 41.4331 17.868C41.5724 17.6653 41.7751 17.4817 42.0411 17.317C42.3198 17.1397 42.5984 17.0003 42.8771 16.899C43.1051 16.823 43.4091 16.7597 43.7891 16.709C44.1691 16.6583 44.5048 16.6267 44.7961 16.614H45.8031C46.5124 16.614 47.4434 16.728 48.5961 16.956V18.78C47.2914 18.476 46.2908 18.324 45.5941 18.324C44.3148 18.324 43.6751 18.7547 43.6751 19.616V22.998C43.6751 23.9733 44.3781 24.461 45.7841 24.461C46.4681 24.461 47.4498 24.3217 48.7291 24.043V25.867C47.5764 26.0823 46.5378 26.19 45.6131 26.19ZM50.2951 12.7H53.0691V17.925C53.2464 17.051 54.2154 16.614 55.9761 16.614C57.1541 16.614 57.9774 16.8293 58.4461 17.26C58.9274 17.678 59.1681 18.343 59.1681 19.255V26H56.3941V19.578C56.3941 19.2233 56.3561 18.9637 56.2801 18.799C56.2168 18.6217 56.0838 18.5013 55.8811 18.438C55.6784 18.362 55.3554 18.324 54.9121 18.324C54.3674 18.324 53.9684 18.3557 53.7151 18.419C53.4618 18.4823 53.2908 18.6027 53.2021 18.78C53.1134 18.9447 53.0691 19.2107 53.0691 19.578V26H50.2951V12.7ZM70.0778 26.19C68.8998 26.19 67.4431 26.076 65.7078 25.848V23.587C67.8611 23.9163 69.3305 24.081 70.1158 24.081C71.7625 24.081 72.5858 23.6567 72.5858 22.808V22.01C72.5858 21.6047 72.4655 21.2943 72.2248 21.079C71.9968 20.8637 71.5788 20.756 70.9708 20.756H69.5268C66.8161 20.756 65.4608 19.6793 65.4608 17.526V16.614C65.4608 15.5373 65.9105 14.7457 66.8098 14.239C67.7091 13.7323 69.1341 13.479 71.0848 13.479C72.0981 13.479 73.3838 13.5613 74.9418 13.726V15.93C73.0291 15.702 71.7118 15.588 70.9898 15.588C69.9891 15.588 69.3178 15.6703 68.9758 15.835C68.6085 16.0123 68.4248 16.291 68.4248 16.671V17.545C68.4248 18.191 68.9695 18.514 70.0588 18.514H71.5408C72.9468 18.514 73.9665 18.7737 74.5998 19.293C75.2331 19.8123 75.5498 20.604 75.5498 21.668V22.485C75.5498 23.9543 75.0241 24.9487 73.9728 25.468C73.4661 25.734 72.9025 25.9177 72.2818 26.019C71.6738 26.133 70.9391 26.19 70.0778 26.19ZM82.0943 26.19C81.6256 26.19 81.2329 26.171 80.9163 26.133C80.5996 26.095 80.2829 26.019 79.9663 25.905C79.6116 25.791 79.3203 25.6327 79.0923 25.43C78.8769 25.2273 78.6996 24.9487 78.5603 24.594C78.4083 24.2267 78.3323 23.8023 78.3323 23.321V18.514H76.4703V16.804H78.3323V14.144H81.1063V16.804H83.6333V18.514H81.1063V22.846C81.1063 23.2893 81.1443 23.625 81.2203 23.853C81.2963 24.0683 81.4419 24.2267 81.6573 24.328C81.8726 24.4167 82.2019 24.461 82.6453 24.461C82.8226 24.461 83.1519 24.4293 83.6333 24.366V26.095C83.0379 26.1583 82.5249 26.19 82.0943 26.19ZM88.4256 26.19C87.2476 26.19 86.4179 25.981 85.9366 25.563C85.4679 25.1323 85.2336 24.461 85.2336 23.549V16.804H88.0076V23.169C88.0076 23.5237 88.0392 23.7897 88.1026 23.967C88.1786 24.1443 88.3179 24.271 88.5206 24.347C88.7359 24.423 89.0589 24.461 89.4896 24.461C90.0342 24.461 90.4332 24.4293 90.6866 24.366C90.9399 24.29 91.1109 24.1633 91.1996 23.986C91.2882 23.8087 91.3326 23.5363 91.3326 23.169V16.804H94.1066V26H91.3706V24.879C91.1679 25.753 90.1862 26.19 88.4256 26.19ZM100.067 26.19C98.978 26.19 98.1737 26.114 97.6544 25.962C97.135 25.7973 96.774 25.4933 96.5714 25.05C96.3687 24.6067 96.2674 23.9163 96.2674 22.979V19.388C96.2674 18.3747 96.5524 17.659 97.1224 17.241C97.705 16.823 98.6424 16.614 99.9344 16.614C100.542 16.614 101.017 16.652 101.359 16.728C101.714 16.7913 101.999 16.9117 102.214 17.089C102.43 17.2537 102.651 17.5007 102.879 17.83V12.7H105.653V26H102.974V24.955C102.746 25.3223 102.537 25.582 102.347 25.734C102.17 25.8733 101.917 25.981 101.587 26.057C101.245 26.1457 100.739 26.19 100.067 26.19ZM100.77 24.461C101.391 24.461 101.847 24.4293 102.138 24.366C102.43 24.3027 102.626 24.1887 102.727 24.024C102.829 23.8467 102.879 23.587 102.879 23.245V19.54C102.879 19.2233 102.822 18.9827 102.708 18.818C102.607 18.6407 102.417 18.514 102.138 18.438C101.872 18.362 101.467 18.324 100.922 18.324C100.34 18.324 99.9217 18.362 99.6684 18.438C99.415 18.5013 99.244 18.6217 99.1554 18.799C99.0794 18.9637 99.0414 19.2423 99.0414 19.635V23.15C99.0414 23.5047 99.0794 23.777 99.1554 23.967C99.244 24.1443 99.4087 24.271 99.6494 24.347C99.89 24.423 100.264 24.461 100.77 24.461ZM108.169 13.479H110.943V15.721H108.169V13.479ZM108.169 16.804H110.943V26H108.169V16.804ZM117.863 26.19C117.293 26.19 116.825 26.171 116.457 26.133C116.09 26.095 115.697 26.019 115.279 25.905C114.823 25.7783 114.456 25.601 114.177 25.373C113.899 25.1323 113.664 24.7967 113.474 24.366C113.284 23.948 113.189 23.4413 113.189 22.846V20.129C113.189 19.521 113.284 18.989 113.474 18.533C113.664 18.077 113.911 17.7223 114.215 17.469C114.481 17.2537 114.83 17.0763 115.26 16.937C115.704 16.785 116.134 16.69 116.552 16.652C117.034 16.6267 117.471 16.614 117.863 16.614C118.446 16.614 118.908 16.633 119.25 16.671C119.605 16.6963 119.991 16.7723 120.409 16.899C120.865 17.0383 121.233 17.2283 121.511 17.469C121.803 17.7097 122.05 18.0517 122.252 18.495C122.442 18.951 122.537 19.4957 122.537 20.129V22.846C122.537 23.416 122.442 23.9163 122.252 24.347C122.075 24.7777 121.841 25.1133 121.549 25.354C121.296 25.5693 120.948 25.7467 120.504 25.886C120.074 26.0127 119.649 26.095 119.231 26.133C118.851 26.171 118.395 26.19 117.863 26.19ZM117.863 24.461C118.383 24.461 118.775 24.423 119.041 24.347C119.307 24.2583 119.491 24.1253 119.592 23.948C119.706 23.7707 119.763 23.511 119.763 23.169V19.692C119.763 19.1853 119.63 18.8307 119.364 18.628C119.098 18.4253 118.598 18.324 117.863 18.324C117.129 18.324 116.628 18.4253 116.362 18.628C116.096 18.8307 115.963 19.1853 115.963 19.692V23.169C115.963 23.511 116.014 23.7707 116.115 23.948C116.229 24.1253 116.419 24.2583 116.685 24.347C116.951 24.423 117.344 24.461 117.863 24.461Z" fill="white"/>
<path d="M15.736 15.996C16.8373 17.3027 17.388 18.768 17.388 20.392C17.3507 22.2587 16.7067 23.8267 15.456 25.096C14.224 26.3467 12.7213 26.972 10.948 26.972H3.584C2.27733 26.972 1.512 26.6173 1.288 25.908C1.176 25.5907 1.12 25.1053 1.12 24.452V8.912C1.12 8.464 1.12933 8.13733 1.148 7.932C1.18533 7.72667 1.27867 7.484 1.428 7.204C1.68933 6.7 2.41733 6.448 3.612 6.448H10.668C12.3853 6.448 13.8227 7.04533 14.98 8.24C16.1933 9.45333 16.8 10.9093 16.8 12.608C16.8 13.84 16.4453 14.9693 15.736 15.996ZM12.432 20.112C12.432 19.664 12.376 19.3093 12.264 19.048C12.1707 18.7867 12.0027 18.6 11.76 18.488C11.3867 18.3387 10.864 18.264 10.192 18.264C9.52 18.264 9.016 18.1333 8.68 17.872C8.344 17.6107 8.176 17.0787 8.176 16.276C8.176 15.4547 8.344 14.9133 8.68 14.652C9.03467 14.3907 9.61333 14.26 10.416 14.26C11.1627 14.26 11.6107 14.064 11.76 13.672C11.816 13.4667 11.844 13.1307 11.844 12.664C11.844 12.1973 11.6853 11.8707 11.368 11.684C11.0693 11.4973 10.612 11.404 9.996 11.404H6.076V22.016H10.668C11.844 22.016 12.432 21.3813 12.432 20.112Z" fill="#EA333B"/>
</svg>
